<?xml version="1.0" encoding="utf-8"?>
<svg version="1.1" id="Layer_2_1_" x="0px" y="0px" viewBox="0 0 1005.3 579.1" style="enable-background:new 0 0 1005.3 579.1;" xmlns="http://www.w3.org/2000/svg">
  <style type="text/css">
	.st0{fill:url(#SVGID_1_);}
	.st1{fill:url(#SVGID_2_);}
	.st2{fill:#0A0A0A;}
	.st3{fill:url(#SVGID_3_);}
</style>
  <linearGradient id="SVGID_1_" gradientUnits="userSpaceOnUse" x1="689.8279" y1="311.3209" x2="756.0279" y2="467.2709" gradientTransform="matrix(1 0 0 -1 0 582)">
    <stop offset="0" style="stop-color:#F7931E"/>
    <stop offset="1" style="stop-color:#FFC20E"/>
  </linearGradient>
  <rect x="232.585" y="54.217" width="231.736" height="176.754" style="fill: rgb(255, 255, 255); stroke: rgb(255, 255, 255);"/>
  <path class="st0" d="M1002.6,281.3c-3.6-46.1-27.3-81.5-59.7-112.3c-18.8-2.4-37.6-4.8-56.3-7.2c18.8,2.4,37.6,4.8,56.3,7.2 c-15.4-15.9-32.9-29-51.8-40.3l-38.5-21l-2.6-1.4l-6.3-2.6c-0.4-0.5-0.9-0.9-1.5-1.3c-81.3-35.1-166.3-45.2-254-37.4l0,0l-39,4.2 l-0.9-0.2c-0.3-0.2-0.6-0.3-0.9-0.3l-40.1,8.3l-60.3,14.1c-0.8,3.3-1.7,6.5-2.5,9.8l32.9,4.8l-32.9-4.7l-40.8,121.8l1.3,0.3 c19.5-7.9,40-12.3,60.5-17.1l1.8-0.3l2.1-0.7l2-0.3l3-0.8l1.9-0.2l2.1-0.7l1.9-0.2l3.1-0.8l1.9-0.2l3.1-0.8c0.3-0.1,0.6-0.1,1-0.1 l3-0.8c76.4-16.2,153.6-23.9,231.7-21.9c52.2,1.4,103.8,7.7,154,22.9l1.2,0.7l1.8,0.3l2,0.8c0.3,0,0.7,0.1,1,0.2l2,0.8 c0.3,0,0.7,0.1,1,0.2l2,0.8c0.3,0,0.7,0.1,1,0.2l1.2,0.8l1.8,0.3c24,8,46.7,19.7,67.1,34.7c9.1,5.3,16.9,12.5,23,21 c8.1,6.2,14.4,13.7,16.8,24C1004.6,286.6,1002.7,282.8,1002.6,281.3z"/>
  <linearGradient id="SVGID_2_" gradientUnits="userSpaceOnUse" x1="725.3728" y1="419.6093" x2="681.8328" y2="244.9693" gradientTransform="matrix(1 0 0 -1 0 582)">
    <stop offset="0" style="stop-color:#F15922"/>
    <stop offset="1" style="stop-color:#FAA819"/>
  </linearGradient>
  <path class="st1" d="M983,261.8L983,261.8c-6.1-8.5-13.9-15.7-23-21c-20.4-15-43.1-26.7-67.2-34.7l-1.8-0.3L890,205 c-0.3-0.1-0.7-0.1-1-0.2l-2-0.8c-0.3-0.1-0.7-0.1-1-0.2l-2-0.8c-0.3-0.1-0.7-0.1-1-0.2l-2-0.8c-0.6-0.1-1.1-0.4-1.7-0.5 c-0.4-0.2-0.9-0.2-1.3-0.5c-1.8-0.6-3.6-1.1-5.4-1.6c-48.5-14.1-98.3-20-148.6-21.3c-78.1-2.1-155.3,5.7-231.7,21.9l-3,0.8 c-0.3,0-0.6,0.1-1,0.1l-3.1,0.8l-1.9,0.2l-3.1,0.8l-1.9,0.2l-2.1,0.7l-1.9,0.2l-3,0.8l-2,0.3l-2.1,0.7l-1.8,0.3 c0,0.9,0.4,1.8,0.9,2.5c-0.5-0.7-0.9-1.6-0.9-2.5c-20.4,4.8-40.9,9.1-60.5,17.1c9.4,6.6,18.8,13.2,28.2,19.7l28.8,20.1 c13.5,9.2,25.3,20.8,40.2,28l34.6,25.6c29-10.1,58.6-18.7,88.5-25.8c67.7-14.3,136.7-21.6,205.9-21.6c51.2,0.2,102.4,4.7,152.9,13.5 l3.1,0.5l12.9,2.6C997.5,275.5,991.1,268,983,261.8z"/>
  <path class="st2" d="M408.6,140.4c0,20.7-16.8,37.5-37.5,37.5c-20.7,0-37.5-16.8-37.5-37.5c0-20.6,16.7-37.4,37.3-37.5 c20.5-0.3,37.4,16.2,37.7,36.7C408.6,139.9,408.6,140.1,408.6,140.4z"/>
  <linearGradient id="SVGID_3_" gradientUnits="userSpaceOnUse" x1="189.2787" y1="23.8994" x2="395.2386" y2="589.7589" gradientTransform="matrix(1 0 0 -1 0 582)">
    <stop offset="0.0015" style="stop-color:#3755BE"/>
    <stop offset="1" style="stop-color:#19C2E7"/>
  </linearGradient>
  <path class="st3" d="M536.7,316.5c-43.5-31.7-87.7-62.3-131.8-93.3c-34.9,8.7-77.5,11.6-102.5-20.3c-18.8-23.5-25.8-54.4-46.8-76.1 l0,0l-12.2-10.4c57.7-41.6,139.7-72,203.5-25.2c33.4-7.9,66.8-15.7,100.4-22.4c-136.5-127.1-338-52-459.8,55.2l-10.7,8.7l40,26.4 c-19.9,13.9-39,27.1-55.4,43.8c-24.4,21-46.9,51.8-53.5,83.8c-0.2,0.9-0.5,3.2-0.9,5.9l-2.2,16.8c-0.7,3.8-1.3,7.5-1.7,11.3 c-0.2,1.7-0.3,3.4-0.5,5.1v0.1l0,0c-7.7,96.1,73.5,196.7,197,235.7c138.3,43.6,277.2-6.4,310.3-111.7c0.5-1.5,0.9-3,1.3-4.5 c0,0,0-0.1,0.1-0.1l0.1-0.4c0-0.1,0-0.1,0-0.2l0,0c6.1-32.5-22.9-58.1-16.3-90.8C500.1,331.5,518.2,323.7,536.7,316.5z"/>
</svg>